<?xml version="1.0" encoding="UTF-8" standalone="no"?>
<!-- Created with Inkscape (http://www.inkscape.org/) -->

<svg
   xmlns:dc="http://purl.org/dc/elements/1.1/"
   xmlns:cc="http://creativecommons.org/ns#"
   xmlns:rdf="http://www.w3.org/1999/02/22-rdf-syntax-ns#"
   xmlns:svg="http://www.w3.org/2000/svg"
   xmlns="http://www.w3.org/2000/svg"
   xmlns:sodipodi="http://sodipodi.sourceforge.net/DTD/sodipodi-0.dtd"
   xmlns:inkscape="http://www.inkscape.org/namespaces/inkscape"
   width="360"
   height="200"
   viewBox="0 0 95.249998 52.916668"
   version="1.1"
   id="svg882"
   inkscape:version="0.92.3 (2405546, 2018-03-11)"
   sodipodi:docname="sibilla_map.svg">
  <defs
     id="defs876" />
  <sodipodi:namedview
     id="base"
     pagecolor="#ffffff"
     bordercolor="#666666"
     borderopacity="1.0"
     inkscape:pageopacity="0.0"
     inkscape:pageshadow="2"
     inkscape:zoom="1.0595553"
     inkscape:cx="71.21282"
     inkscape:cy="19.312626"
     inkscape:document-units="mm"
     inkscape:current-layer="text835"
     showgrid="false"
     fit-margin-top="0"
     fit-margin-left="0"
     fit-margin-right="0"
     fit-margin-bottom="0"
     inkscape:window-width="1920"
     inkscape:window-height="1053"
     inkscape:window-x="0"
     inkscape:window-y="512"
     inkscape:window-maximized="1"
     units="px" />
  <metadata
     id="metadata879">
    <rdf:RDF>
      <cc:Work
         rdf:about="">
        <dc:format>image/svg+xml</dc:format>
        <dc:type
           rdf:resource="http://purl.org/dc/dcmitype/StillImage" />
        <dc:title />
      </cc:Work>
    </rdf:RDF>
  </metadata>
  <g
     inkscape:label="Layer 1"
     inkscape:groupmode="layer"
     id="layer1"
     transform="translate(-25.429414,-17.138164)">
    <path
       style="fill:#333333;fill-opacity:1;stroke:none;stroke-width:0.38834575;stroke-miterlimit:4;stroke-dasharray:none;stroke-opacity:1"
       d="m 30.904587,64.489235 h 49.958881 v 2.09937 H 30.904587 Z"
       id="rect815" />
    <path
       style="fill:#333333;fill-opacity:1;stroke:none;stroke-width:0.32362142;stroke-miterlimit:4;stroke-dasharray:none;stroke-opacity:1"
       d="m 35.067822,61.98407 h 41.632396 v 1.749475 H 35.067822 Z"
       id="rect817" />
    <path
       style="fill:#333333;fill-opacity:1;stroke:none;stroke-width:0.25889713;stroke-miterlimit:4;stroke-dasharray:none;stroke-opacity:1"
       d="m 39.231068,59.822388 h 33.305919 v 1.39958 H 39.231068 Z"
       id="rect819" />
    <path
       style="fill:#333333;fill-opacity:1;stroke:none;stroke-width:0.39938253;stroke-miterlimit:4;stroke-dasharray:none;stroke-opacity:1"
       d="m 39.033539,33.426987 h 33.305919 v 3.330592 H 39.033539 Z"
       id="rect827" />
    <path
       transform="scale(-1)"
       style="fill:#333333;fill-opacity:1;stroke:none;stroke-width:0.67803645;stroke-miterlimit:4;stroke-dasharray:none;stroke-opacity:1"
       d="m -39.060743,-30.203271 a 19.197767,19.197767 0 0 1 -16.625754,9.598884 19.197767,19.197767 0 0 1 -16.625754,-9.598884"
       id="path829" />
    <path
       style="fill:#333333;fill-opacity:1;stroke:none;stroke-width:0.29953688;stroke-miterlimit:4;stroke-dasharray:none;stroke-opacity:1"
       d="m 36.951916,30.980032 h 37.469162 v 1.665296 H 36.951916 Z"
       id="rect831" />
    <g
       aria-label="sIbIlla"
       style="font-style:normal;font-weight:normal;font-size:7.40611219px;line-height:0;font-family:sans-serif;text-align:center;letter-spacing:0px;word-spacing:0px;text-anchor:middle;fill:#333333;fill-opacity:1;stroke:none;stroke-width:0.1851528"
       id="text835">
      <path
         d="m 39.501715,41.76972 -0.473991,0.79986 -0.473991,0.79986 0.05925,0.562865 -0.651738,-0.414742 -0.681362,-0.503616 -0.562865,-0.651738 -0.651738,-0.503615 0.53324,-0.740612 -0.148122,-0.829484 -0.770236,-0.26662 -0.79986,0.118498 -0.770235,0.26662 -0.710987,0.414742 -0.622114,0.622113 -0.207371,0.859109 -0.05925,0.859109 0.26662,0.859109 0.296245,0.79986 0.562864,0.651738 0.325869,0.770236 0.473992,0.740611 0.473991,0.740611 0.236995,0.888734 0.26662,0.888733 0.355494,0.859109 v 0.918358 l 0.148122,0.888734 v 0.947982 l -0.177747,0.918358 -0.207371,0.859109 -0.385118,0.829485 -0.473991,0.770235 -0.385118,0.79986 -0.651738,0.562865 -0.681362,0.503616 -0.681362,0.503615 -0.829485,0.26662 -0.770235,0.26662 -0.859109,0.148122 -0.859109,-0.05925 -0.770236,-0.355494 -0.710987,-0.414742 -0.710987,-0.355493 -0.444366,-0.829485 -0.503616,-0.740611 -0.236996,-0.888734 -0.08887,-0.888733 0.236996,-0.859109 0.26662,-0.888734 0.503615,-0.651738 0.08887,-0.681362 0.651737,0.473991 0.473992,0.770236 0.592489,0.622113 0.53324,0.53324 -0.473991,0.622114 0.05925,0.888733 0.681363,0.53324 0.79986,0.355494 0.79986,-0.26662 0.79986,-0.355494 0.53324,-0.622113 0.53324,-0.710987 0.26662,-0.79986 0.08887,-0.859109 0.05925,-0.829484 0.148122,-0.85911 -0.177747,-0.829484 -0.414742,-0.770236 -0.236996,-0.770235 -0.473991,-0.651738 -0.296244,-0.710987 -0.473992,-0.79986 -0.503615,-0.829485 -0.355494,-0.859109 -0.177746,-0.918358 -0.296245,-0.888733 -0.08887,-0.918358 0.05925,-0.918358 0.236995,-0.859109 0.414743,-0.79986 0.651737,-0.592489 0.562865,-0.681362 0.651738,-0.622114 0.829484,-0.325869 0.859109,-0.207371 0.770236,-0.385118 0.859109,-0.05925 0.888734,0.177747 0.888733,0.148122 0.740611,0.503616 0.651738,0.592489 0.385118,0.79986 0.325869,0.79986 0.05925,0.79986 z"
         style="font-style:normal;font-variant:normal;font-weight:normal;font-stretch:normal;font-size:29.62444878px;font-family:'Possum Saltare NF';-inkscape-font-specification:'Possum Saltare NF';fill:#333333;fill-opacity:1;stroke-width:0.1851528"
         id="path825" />
      <path
         d="m 46.951802,37.563048 -0.562865,0.710987 -0.562864,0.681363 -0.651738,0.503615 0.08887,0.918358 0.02963,0.888734 -0.02963,0.888733 0.05925,0.888733 -0.02962,0.918358 -0.05925,0.888734 -0.118498,0.888733 0.118498,0.888734 0.05925,0.888733 -0.177747,0.888734 0.02962,0.859109 0.177747,0.888733 -0.177747,0.888734 -0.02962,0.888733 v 0.859109 l 0.08887,0.888734 0.08887,0.859109 0.02962,0.888733 V 56.2857 l -0.05925,0.79986 0.503616,0.681363 0.622113,0.592489 0.503616,0.651737 h -0.859109 l -0.859109,0.08887 -0.859109,-0.118498 -0.829485,-0.05925 -0.859109,0.08887 -0.829484,0.08887 -0.770236,-0.118498 0.385118,-0.651738 0.592489,-0.562864 0.414742,-0.622114 0.05925,-0.888733 -0.08887,-0.918358 0.05925,-0.888734 -0.08887,-0.888733 v -0.888734 -0.888733 l 0.05925,-0.918358 -0.02962,-0.859109 -0.02963,-0.918358 0.05925,-0.859109 -0.05925,-0.918358 0.118498,-0.888733 -0.08887,-0.859109 0.118497,-0.888734 -0.05925,-0.888733 v -0.888734 l 0.118498,-0.888733 -0.02962,-0.888734 -0.118498,-0.859109 0.02962,-0.829484 -0.414742,-0.651738 -0.622113,-0.53324 -0.473991,-0.681363 0.888733,0.118498 0.859109,-0.118498 0.859109,0.05925 h 0.829485 l 0.859109,0.02962 h 0.829484 z"
         style="fill:#333333;fill-opacity:1;stroke-width:0.1851528"
         id="path827" />
      <path
         d="m 63.480856,52.878888 -0.26662,0.859109 -0.148122,0.888734 -0.236996,0.859109 -0.385118,0.79986 -0.53324,0.740611 -0.651738,0.622114 -0.740611,0.473991 -0.888733,0.236996 -0.79986,0.385117 -0.888734,0.02963 -0.859109,0.08887 -0.829484,0.177747 -0.888734,0.02962 -0.888733,-0.177746 -0.859109,0.236995 -0.888734,-0.02962 -0.918358,-0.05925 -0.888733,-0.05925 -0.859109,-0.08887 -0.859109,0.148122 -0.79986,-0.05925 0.651737,-0.562865 0.562865,-0.770235 0.503616,-0.622114 0.236995,-0.829484 -0.236995,-0.918358 0.05925,-0.888734 0.118497,-0.888733 -0.08887,-0.859109 0.118498,-0.859109 -0.177747,-0.888734 0.02963,-0.888733 -0.05925,-0.918358 0.207371,-0.888733 -0.177747,-0.859109 0.118498,-0.888734 -0.118498,-0.888733 0.02963,-0.888734 0.118497,-0.888733 -0.118497,-0.859109 0.118497,-0.888734 -0.177746,-0.859109 0.177746,-0.859109 -0.08887,-0.79986 -0.444367,-0.710987 -0.53324,-0.622113 -0.592489,-0.53324 0.05925,-0.118498 h 0.859109 l 0.859109,0.177747 0.888734,-0.148123 0.859109,0.05925 0.888733,-0.148122 0.859109,0.02962 0.829485,0.148122 0.829484,0.05925 0.918358,-0.08887 0.859109,0.325869 0.829485,0.355494 0.770235,0.444366 0.710987,0.503616 0.651738,0.622113 0.296245,0.859109 0.503615,0.740612 0.118498,0.888733 -0.02963,0.829485 0.148123,0.918358 -0.296245,0.829484 -0.385118,0.770236 -0.473991,0.710987 -0.473991,0.710986 -0.651738,0.562865 0.918358,0.26662 0.740611,0.562865 0.79986,0.444366 0.533241,0.740611 0.681362,0.592489 0.26662,0.859109 0.236995,0.859109 z M 58.4447,44.228549 V 43.36944 l -0.118498,-0.829484 -0.26662,-0.770236 -0.325869,-0.770235 -0.651738,-0.503616 -0.622113,-0.53324 -0.770236,-0.355494 -0.829485,0.08887 -0.770235,-0.236996 -0.947983,0.08887 -0.177746,0.859109 v 0.888733 l 0.02962,0.859109 0.148122,0.888733 v 0.85911 l -0.148122,0.829484 -0.02962,0.859109 0.148122,0.829485 -0.08887,0.859109 0.829484,-0.08887 0.79986,0.148123 0.829485,-0.325869 0.888733,-0.148123 0.710987,-0.53324 0.503616,-0.681362 0.562864,-0.622113 z m 2.13296,8.828086 -0.26662,-0.888733 -0.148122,-0.947983 -0.710987,-0.651738 -0.622113,-0.681362 -0.829485,-0.325869 h -0.918358 l -0.79986,-0.08887 -0.829485,0.02962 -0.829484,0.02963 -0.79986,-0.118498 h -0.829485 l -0.02962,0.947982 0.207371,0.859109 -0.118498,0.888734 -0.02962,0.859109 0.118497,0.888733 -0.177746,0.859109 0.08887,0.79986 0.355493,0.918358 0.947983,0.296245 0.947982,0.177747 0.947983,0.148122 v -0.02963 l 0.918357,-0.148122 0.947983,-0.148122 0.770235,-0.562865 0.681363,-0.651738 0.444367,-0.79986 0.444366,-0.79986 z"
         style="font-style:normal;font-variant:normal;font-weight:normal;font-stretch:normal;font-size:29.62444878px;font-family:'Possum Saltare NF';-inkscape-font-specification:'Possum Saltare NF';fill:#333333;fill-opacity:1;stroke-width:0.1851528"
         id="path830" />
      <path
         d="m 70.905946,37.563048 -0.562864,0.710987 -0.562865,0.681363 -0.651738,0.503615 0.08887,0.918358 0.02962,0.888734 -0.02962,0.888733 0.05925,0.888733 -0.02962,0.918358 -0.05925,0.888734 -0.118498,0.888733 0.118498,0.888734 0.05925,0.888733 -0.177747,0.888734 0.02962,0.859109 0.177746,0.888733 -0.177746,0.888734 -0.02962,0.888733 v 0.859109 l 0.08887,0.888734 0.08887,0.859109 0.02962,0.888733 V 56.2857 l -0.05925,0.79986 0.503615,0.681363 0.622114,0.592489 0.503615,0.651737 h -0.859109 l -0.859109,0.08887 -0.859109,-0.118498 -0.829484,-0.05925 -0.859109,0.08887 -0.829485,0.08887 -0.770236,-0.118498 0.385118,-0.651738 0.592489,-0.562864 0.414742,-0.622114 0.05925,-0.888733 -0.08887,-0.918358 0.05925,-0.888734 -0.08887,-0.888733 v -0.888734 -0.888733 l 0.05925,-0.918358 -0.02962,-0.859109 -0.02962,-0.918358 0.05925,-0.859109 -0.05925,-0.918358 0.118497,-0.888733 -0.08887,-0.859109 0.118498,-0.888734 -0.05925,-0.888733 v -0.888734 l 0.118498,-0.888733 -0.02963,-0.888734 -0.118498,-0.859109 0.02962,-0.829484 -0.414742,-0.651738 -0.622114,-0.53324 -0.473991,-0.681363 0.888734,0.118498 0.859109,-0.118498 0.859109,0.05925 h 0.829484 l 0.859109,0.02962 h 0.829485 z"
         style="fill:#333333;fill-opacity:1;stroke-width:0.1851528"
         id="path832" />
      <path
         d="m 85.479788,55.722836 -0.385118,0.859109 -0.444367,0.710986 -0.503615,0.740612 -0.355494,0.79986 -0.53324,0.710986 -0.385118,0.770236 -0.385117,0.710987 -0.355494,-0.770236 -0.118498,-0.888733 -0.26662,-0.770236 -0.829484,-0.325869 -0.888734,-0.26662 -0.888733,-0.207371 -0.79986,-0.414742 -0.829485,-0.355494 -0.918358,-0.177746 -0.79986,-0.414743 -0.859109,-0.296244 -0.79986,-0.385118 -0.829485,-0.296244 -0.740611,-0.266621 0.651738,-0.592488 0.562865,-0.681363 0.148122,-0.829484 -0.177747,-0.859109 0.207371,-0.888734 -0.177746,-0.829484 0.207371,-0.859109 -0.08887,-0.888734 0.02962,-0.859109 -0.08887,-0.859109 0.02962,-0.859109 -0.02962,-0.829485 0.02962,-0.859109 0.08887,-0.859109 v -0.859109 l -0.08887,-0.859109 -0.05925,-0.829484 -0.02962,-0.829485 0.02962,-0.79986 -0.325869,-0.710987 -0.651738,-0.53324 -0.473991,-0.651738 0.888734,0.05925 0.859109,0.02962 0.859109,-0.148122 0.859109,0.148122 0.829484,-0.02962 h 0.829485 l 0.829484,-0.02962 -0.651738,0.562864 -0.562864,0.651738 -0.385118,0.681363 -0.148122,0.918358 0.05925,0.888733 v 0.918358 l 0.08887,0.918358 0.05925,0.888733 -0.207371,0.918358 -0.02962,0.918358 0.177747,0.888734 0.02962,0.918357 v 0.918358 l -0.207371,0.888734 0.236996,0.918358 -0.177747,0.888733 v 0.888734 l 0.118498,0.888733 v 0.859109 l 0.710987,0.414742 0.79986,0.325869 0.859109,0.207372 0.79986,0.296244 0.829485,0.236996 0.770235,0.355493 0.770236,0.385118 0.770236,0.207371 0.829484,-0.207371 0.770236,-0.26662 z"
         style="font-style:normal;font-variant:normal;font-weight:normal;font-stretch:normal;font-size:29.62444878px;font-family:'Possum Saltare NF';-inkscape-font-specification:'Possum Saltare NF';fill:#333333;fill-opacity:1;stroke-width:0.1851528"
         id="path834" />
      <path
         d="m 99.134806,55.722836 -0.385118,0.859109 -0.444367,0.710986 -0.503615,0.740612 -0.355494,0.79986 -0.53324,0.710986 -0.385118,0.770236 -0.385118,0.710987 -0.355493,-0.770236 -0.118498,-0.888733 -0.26662,-0.770236 -0.829484,-0.325869 -0.888734,-0.26662 -0.888733,-0.207371 -0.79986,-0.414742 -0.829485,-0.355494 -0.918358,-0.177746 -0.79986,-0.414743 -0.859109,-0.296244 -0.79986,-0.385118 -0.829485,-0.296244 -0.740611,-0.266621 0.651738,-0.592488 0.562864,-0.681363 0.148123,-0.829484 -0.177747,-0.859109 0.207371,-0.888734 -0.177747,-0.829484 0.207372,-0.859109 -0.08887,-0.888734 0.02962,-0.859109 -0.08887,-0.859109 0.02963,-0.859109 -0.02963,-0.829485 0.02963,-0.859109 0.08887,-0.859109 v -0.859109 l -0.08887,-0.859109 -0.05925,-0.829484 -0.02962,-0.829485 0.02962,-0.79986 -0.325869,-0.710987 -0.651738,-0.53324 -0.473991,-0.651738 0.888733,0.05925 0.859109,0.02962 0.859109,-0.148122 0.859109,0.148122 0.829485,-0.02962 h 0.829485 l 0.829484,-0.02962 -0.651738,0.562864 -0.562864,0.651738 -0.385118,0.681363 -0.148122,0.918358 0.05925,0.888733 v 0.918358 l 0.08887,0.918358 0.05925,0.888733 -0.207371,0.918358 -0.02963,0.918358 0.177747,0.888734 0.02962,0.918357 v 0.918358 l -0.207371,0.888734 0.236996,0.918358 -0.177747,0.888733 v 0.888734 l 0.118498,0.888733 v 0.859109 l 0.710987,0.414742 0.79986,0.325869 0.859109,0.207372 0.79986,0.296244 0.829484,0.236996 0.770236,0.355493 0.770236,0.385118 0.770235,0.207371 0.829485,-0.207371 0.770236,-0.26662 z"
         style="font-style:normal;font-variant:normal;font-weight:normal;font-stretch:normal;font-size:29.62444878px;font-family:'Possum Saltare NF';-inkscape-font-specification:'Possum Saltare NF';fill:#333333;fill-opacity:1;stroke-width:0.1851528"
         id="path836" />
      <path
         d="m 120.61947,58.9519 -0.0296,0.177747 -0.97761,-0.177747 -0.91836,0.05925 -0.94798,0.05925 -0.94798,0.02963 -0.91836,-0.207371 -0.85911,0.118497 0.44437,-0.651737 0.29624,-0.681363 -0.50361,-0.770235 -0.47399,-0.770236 -0.47399,-0.770236 -0.50362,-0.740611 -0.41474,-0.770236 -0.3555,-0.829484 -0.44436,-0.770236 -0.3555,-0.681362 -0.8591,0.355493 -0.71099,0.622114 -0.85911,0.385117 -0.77024,0.53324 -0.82948,0.414743 -0.77024,0.503615 -0.71098,0.53324 -0.77024,0.503616 -0.71099,0.473991 -0.14812,0.859109 -0.29624,0.829485 0.44436,0.681362 0.17775,0.681362 -0.82948,-0.05925 h -0.85911 l -0.82949,0.148122 -0.85911,-0.148122 -0.82948,0.118497 -0.68136,-0.05925 0.38512,-0.651737 0.62211,-0.592489 0.62211,-0.53324 0.20737,-0.888734 0.0889,-0.918358 0.29624,-0.829484 0.237,-0.859109 0.26662,-0.888734 0.35549,-0.79986 0.14812,-0.859109 0.3555,-0.829485 0.23699,-0.888733 0.237,-0.829485 0.14812,-0.859109 0.35549,-0.829484 0.20737,-0.888734 0.29625,-0.829484 0.23699,-0.829485 0.0889,-0.888733 0.23699,-0.829485 0.38512,-0.79986 0.20737,-0.859109 0.17775,-0.770236 -0.3555,-0.918358 -0.38511,-0.888733 -0.62212,-0.681362 -0.74061,-0.325869 -0.77023,-0.325869 -0.82949,-0.296245 0.88874,-0.355493 0.77023,-0.503616 0.77024,-0.592489 0.82948,-0.444366 0.71099,-0.53324 0.53324,0.947982 0.23699,0.859109 0.50362,0.740611 0.29624,0.829485 0.474,0.770235 0.32586,0.79986 0.41475,0.799861 0.20737,0.888733 0.50361,0.740611 0.3555,0.79986 0.44436,0.799861 0.32587,0.79986 0.3555,0.79986 0.38511,0.829484 0.237,0.859109 0.50361,0.740612 0.38512,0.770235 0.38512,0.79986 0.47399,0.710987 0.29625,0.79986 0.35549,0.770236 0.44437,0.740611 0.35549,0.770236 0.50362,0.710987 0.41474,0.740611 0.50361,0.681362 0.50362,0.681362 0.47399,0.710987 0.47399,0.681363 0.50362,0.79986 0.68136,0.592489 z m -9.68719,-9.864941 -0.35549,-0.651738 -0.38512,-0.770236 -0.20737,-0.859109 -0.32587,-0.740611 -0.56287,-0.651738 -0.14812,-0.829484 -0.53324,-0.740611 -0.23699,0.859109 -0.1185,0.888733 -0.1185,0.859109 -0.29624,0.79986 -0.3555,0.79986 -0.14812,0.888734 -0.17775,0.859109 -0.32587,0.770235 -0.20737,0.829485 -0.17774,0.79986 v 0.05925 l 0.74061,-0.651738 0.85911,-0.473991 0.88873,-0.414742 0.77024,-0.562865 0.71098,-0.592489 z"
         style="font-style:normal;font-variant:normal;font-weight:normal;font-stretch:normal;font-size:29.62444878px;font-family:'Possum Saltare NF';-inkscape-font-specification:'Possum Saltare NF';fill:#333333;fill-opacity:1;stroke-width:0.1851528"
         id="path838" />
    </g>
  </g>
</svg>
