<?xml version="1.0" encoding="UTF-8" standalone="no"?>
<!-- Created with Inkscape (http://www.inkscape.org/) -->

<svg
   xmlns:dc="http://purl.org/dc/elements/1.1/"
   xmlns:cc="http://creativecommons.org/ns#"
   xmlns:rdf="http://www.w3.org/1999/02/22-rdf-syntax-ns#"
   xmlns:svg="http://www.w3.org/2000/svg"
   xmlns="http://www.w3.org/2000/svg"
   xmlns:sodipodi="http://sodipodi.sourceforge.net/DTD/sodipodi-0.dtd"
   xmlns:inkscape="http://www.inkscape.org/namespaces/inkscape"
   width="135.72266mm"
   height="50mm"
   viewBox="0 0 135.72266 50"
   version="1.1"
   id="svg8"
   inkscape:version="0.92.3 (2405546, 2018-03-11)"
   sodipodi:docname="hr.svg">
  <defs
     id="defs2" />
  <sodipodi:namedview
     id="base"
     pagecolor="#ffffff"
     bordercolor="#666666"
     borderopacity="1.0"
     inkscape:pageopacity="0.0"
     inkscape:pageshadow="2"
     inkscape:zoom="0.35"
     inkscape:cx="-15.042547"
     inkscape:cy="169.46923"
     inkscape:document-units="mm"
     inkscape:current-layer="layer1"
     showgrid="false"
     fit-margin-top="0"
     fit-margin-left="0"
     fit-margin-right="0"
     fit-margin-bottom="0"
     inkscape:window-width="1448"
     inkscape:window-height="709"
     inkscape:window-x="266"
     inkscape:window-y="632"
     inkscape:window-maximized="0" />
  <metadata
     id="metadata5">
    <rdf:RDF>
      <cc:Work
         rdf:about="">
        <dc:format>image/svg+xml</dc:format>
        <dc:type
           rdf:resource="http://purl.org/dc/dcmitype/StillImage" />
        <dc:title></dc:title>
      </cc:Work>
    </rdf:RDF>
  </metadata>
  <g
     inkscape:label="Layer 1"
     inkscape:groupmode="layer"
     id="layer1"
     transform="translate(-10.530774,-62.883041)">
    <path
       style="fill:#333333;stroke-width:0.35277778"
       d="m 14.107195,95.920329 c -2.555054,-1.27323 -3.376571,-2.55365 -3.54443,-5.52434 -0.16437,-2.908952 0.268537,-4.072252 2.146951,-5.769292 2.41715,-2.183754 4.85146,-3.061964 8.980738,-3.239924 6.612448,-0.28497 11.166587,1.018 21.26448,6.083924 7.865256,3.945842 10.14449,4.775822 13.11502,4.775822 2.15744,0 5.237786,-1.05052 5.237786,-1.7863 0,-0.17173 -0.479016,-0.559952 -1.064482,-0.862712 -0.585466,-0.30275 -2.351581,-1.5896 -3.924702,-2.85965 l -2.860216,-2.30918 -2.116339,0.94976 c -2.604491,1.16883 -4.252439,1.41199 -6.134544,0.90519 -4.200464,-1.13106 -4.824214,-5.054544 -1.074236,-6.757084 2.497063,-1.1337 5.067973,-0.71507 8.677101,1.41295 1.671917,0.9858 1.719785,0.99227 3.596637,0.48598 3.744785,-1.01018 7.994959,-0.0673 9.643282,2.13939 0.769556,1.030224 1.018289,4.351174 0.418966,5.593784 -0.244994,0.50796 0.03489,0.77027 1.59217,1.492182 2.388267,1.10713 5.322062,1.72515 6.838724,1.44063 l 1.173021,-0.22007 -1.420343,-1.32488 c -4.282327,-3.994512 0.529149,-9.702256 6.186226,-7.338576 3.366346,1.406554 3.665548,5.920014 0.524288,7.908926 l -1.137444,0.72017 1.275726,0.23933 c 1.592216,0.2987 4.376518,-0.28182 7.001343,-1.45977 1.998599,-0.896922 2.007895,-0.908172 1.521139,-1.841112 -1.174351,-2.25082 -0.05688,-5.376684 2.419724,-6.768614 1.832031,-1.02965 5.436626,-1.30186 7.743859,-0.58478 1.66014,0.51596 1.66448,0.51512 4.23333,-0.82548 3.25433,-1.69834 5.39784,-2.05201 7.52138,-1.24102 2.97951,1.13788 3.86984,3.59631 1.98502,5.481134 -2.01338,2.01337 -5.1442,2.17661 -8.95402,0.46687 l -2.02967,-0.91086 -1.85617,1.5843 c -1.02089,0.87137 -2.765132,2.22047 -3.876097,2.99801 -1.865637,1.305712 -1.973428,1.453892 -1.411111,1.939862 1.473317,1.27328 5.137648,1.71152 8.017158,0.95883 0.77611,-0.20287 5.14173,-2.179282 9.70138,-4.392012 10.86578,-5.273004 13.04083,-5.929944 19.75556,-5.966824 4.92316,-0.0271 5.19805,0.0101 7.31925,0.98982 3.97584,1.836274 6.09526,5.041594 5.58472,8.446136 -0.53976,3.59938 -3.65952,5.88179 -8.03967,5.88179 -2.86996,0 -4.38048,-0.55788 -5.67452,-2.09577 -2.38276,-2.83174 0.053,-6.569612 3.82048,-5.862822 1.47552,0.27681 2.2814,1.03646 2.2814,2.150542 0,1.73101 -2.61265,2.00336 -3.03603,0.31648 -0.24044,-0.95798 -0.50262,-1.05922 -1.12674,-0.4351 -0.97157,0.97156 -0.15628,3.12867 1.59053,4.20826 3.90983,2.41641 7.8448,-3.54086 5.25255,-7.951992 -2.09767,-3.569554 -6.46759,-4.900604 -11.65392,-3.549744 -1.95624,0.509544 -3.20332,1.114324 -12.25627,5.943744 -6.48559,3.459842 -11.35654,4.691092 -17.32363,4.378972 -2.556055,-0.1337 -3.750641,-0.38323 -5.419079,-1.13198 l -2.140236,-0.96048 -2.608163,0.79856 c -1.876457,0.57453 -3.449415,0.79299 -5.606778,0.77871 -2.790797,-0.0185 -4.372776,-0.0211 -11.84077,-0.0198 -1.934531,3.6e-4 -3.711204,-0.25665 -5.551939,-0.8031 l -2.707001,-0.80362 -2.209172,1.02025 c -2.097154,0.96852 -2.450659,1.01961 -6.971671,1.00774 -3.867598,-0.0102 -5.29161,-0.16333 -7.578319,-0.81511 -3.438102,-0.97997 -7.670413,-2.93252 -12.353624,-5.699282 -6.143895,-3.629694 -11.083564,-4.925254 -14.805593,-3.883154 -3.022271,0.846194 -5.841479,4.118004 -5.824157,6.759206 0.01752,2.67144 2.331567,5.58606 4.437998,5.58981 1.075069,0.002 3.077444,-1.45953 3.449579,-2.51769 0.175955,-0.50033 0.214714,-1.32886 0.08613,-1.84118 -0.270693,-1.07853 -1.278679,-1.26642 -1.278679,-0.23835 0,0.84744 -1.188883,1.5416 -2.129173,1.24316 -0.990034,-0.31422 -1.276517,-1.80223 -0.51004,-2.649182 1.302743,-1.43951 4.848158,-1.16391 5.989507,0.465592 0.700672,1.00035 0.675898,3.41015 -0.04565,4.4403 -1.58176,2.25828 -6.951011,2.90784 -10.288527,1.24468 z m 65.714173,-6.135732 c 1.341706,-1.40044 1.359585,-2.99068 0.04633,-4.1203 -1.18352,-1.01802 -1.963328,-1.0414 -3.166547,-0.0949 -1.324472,1.04183 -1.281007,2.85218 0.101677,4.23487 1.295041,1.295042 1.761928,1.292002 3.018543,-0.0196 z M 62.72264,85.374437 c -0.632626,-1.18207 -2.230995,-1.947364 -4.067228,-1.947364 h -1.661523 l 2.950676,2.113244 c 2.694936,1.93009 2.961043,2.04783 3.070305,1.35847 0.0658,-0.41513 -0.06571,-1.10109 -0.29223,-1.52435 z m 33.333708,0.52563 c 0.388056,-0.33475 1.33772,-1.02812 2.110363,-1.54081 l 1.40481,-0.932184 h -1.88106 c -1.668872,0 -2.016354,0.1353 -3.080501,1.199444 -0.775032,0.77504 -1.199445,1.53836 -1.199445,2.15724 v 0.9578 l 0.970139,-0.61643 c 0.533577,-0.33903 1.287639,-0.89031 1.675694,-1.22506 z m -45.928869,-1.68034 2.048905,-0.969044 -1.513787,-1.16045 c -2.403608,-1.84257 -4.328441,-1.94511 -5.413963,-0.28839 -0.900409,1.3742 0.404724,3.282534 2.300774,3.364144 0.291041,0.0125 1.451172,-0.41329 2.578071,-0.94626 z m 60.761561,0.10533 c 1.06793,-1.067924 1.09435,-1.844074 0.0989,-2.903724 -1.13039,-1.20324 -2.58624,-1.05394 -4.83671,0.49602 l -1.9057,1.31251 2.07903,0.979454 c 2.5588,1.20546 3.45214,1.22812 4.56451,0.11574 z"
       id="path4529"
       inkscape:connector-curvature="0" />
  </g>
</svg>
